<?xml version="1.0" encoding="UTF-8"?>
<svg width="101px" height="101px" viewBox="0 0 101 101" version="1.1" xmlns="http://www.w3.org/2000/svg" xmlns:xlink="http://www.w3.org/1999/xlink">
    <!-- Generator: Sketch 52.2 (67145) - http://www.bohemiancoding.com/sketch -->
    <title>Group 21</title>
    <desc>Created with Sketch.</desc>
    <defs>
        <linearGradient x1="37.8234276%" y1="84.0021423%" x2="92.4667483%" y2="4.827398%" id="linearGradient-1">
            <stop stop-color="#854DE1" offset="0%"></stop>
            <stop stop-color="#FF3EA6" offset="100%"></stop>
        </linearGradient>
    </defs>
    <g id="User-profile-" stroke="none" stroke-width="1" fill="none" fill-rule="evenodd">
        <g id="Group-21">
            <path d="M47.1674525,27.1102431 C46.7808405,27.4971828 46.3196557,27.8556711 45.7838982,28.185708 C44.4023287,29.5513776 46.4149855,31.1901812 44.5728928,30.2512833 L38.8419378,27.3321644 L22.5871754,19.0527921 C22.5530626,19.0374283 22.5189498,19.0869338 22.5360062,19.1210756 L26.9536174,28.185708 C27.8576073,30.029362 27.6188175,32.3168587 26.1178531,33.7166701 C23.6787859,36.0212377 19.9946005,35.184765 18.6642002,32.4363548 L11.48345,17.738335 C9.82897789,14.4948696 10.7841371,10.4661441 13.95663,8.33228524 C16.2080767,6.83004861 19.1588362,6.83004861 21.5637906,8.05915131 L45.7838982,20.4013909 L48.5982065,21.835344 C50.5426377,22.8254545 51.753643,24.9934551 51.2419506,27.1102431 C51.0202173,28.0320701 47.7473706,26.5298335 47.1674525,27.1102431 Z" id="Fill-3" fill="#4317AF"></path>
            <path d="M100.217659,57.8562571 C99.9447568,59.3926355 99.2283874,60.7412343 98.1879462,61.7842645 C97.0963357,62.8597294 95.6806534,63.6091406 94.0773505,63.8498399 L66.7188627,67.8273528 L63.5293133,68.2865592 C60.5103281,68.7304018 57.7471891,66.1697712 58.2588815,62.8597294 C58.5658969,60.8265887 60.3227075,59.324352 62.3524208,59.0341472 L68.2027707,58.1806037 L86.3849078,55.5363258 C86.4190207,55.5363258 86.4360771,55.4680423 86.4019643,55.4509715 L79.221214,51.7107437 C76.5263007,50.2938614 75.7758185,46.5894824 78.1296036,44.2183385 C79.5623423,42.7485365 81.8649582,42.5607569 83.6899945,43.5184328 L96.4311356,50.1572944 C99.2283874,51.6424602 100.746408,54.7339949 100.217659,57.8562571" id="Fill-1" fill="#4317AF"></path>
            <path d="M69.9260569,0.613794095 C69.3052034,0.439671213 68.6741161,0.357731033 68.0481457,0.357731033 C65.9757914,0.357731033 63.9426669,1.26248718 62.4365856,2.77155216 L45.7383564,19.4856417 L38.8049242,26.4232436 L2.92164085,62.3369416 C0.966975826,64.2949705 0.018639218,67.1389775 0.746948088,69.8071547 C1.77203856,73.557625 5.28736545,75.8143941 8.94084928,75.3739656 L25.9819123,74.400926 C28.028682,74.2814299 29.9082988,72.9430736 30.3995235,70.950903 C31.1994693,67.6954879 28.6682975,64.8975722 25.622022,65.0734022 L12.7512521,65.8057425 C12.7103167,65.8108638 12.6864378,65.7596512 12.7154337,65.7306307 L49.9240004,28.4922332 L49.9461737,28.470041 L65.1946077,13.2086826 C65.2253092,13.1762479 65.2781841,13.2035613 65.2713615,13.2462385 L54.6264537,82.6990763 C54.6196311,82.7485818 54.5514055,82.751996 54.5377603,82.7059046 L46.8862531,57.1798315 C46.1528273,54.7352828 43.6660022,53.0777013 41.1962334,53.7042022 C38.6053642,54.3597237 37.1078111,57.0347291 37.8668215,59.5680464 L48.8340956,96.1492154 C48.8340956,96.1543366 48.8358012,96.1560437 48.8358012,96.1594579 L48.8852648,96.2533477 C50.063863,98.5801074 52.3425999,100.266709 54.9454086,100.379377 C57.0450532,100.466439 58.9400207,99.6675218 60.2874774,98.317216 C61.3057453,97.3014991 62.0101752,95.96485 62.2557876,94.4677346 L66.5215967,66.6405081 L67.9986821,56.992052 L75.356819,8.9887633 C75.9282089,5.28779852 73.6955243,1.67218808 69.9260569,0.613794095" id="Fill-7" fill="url(#linearGradient-1)"></path>
        </g>
    </g>
</svg>