<?xml version="1.0" encoding="UTF-8"?>
<svg width="552px" height="101px" viewBox="0 0 552 101" version="1.1" xmlns="http://www.w3.org/2000/svg" xmlns:xlink="http://www.w3.org/1999/xlink">
    <!-- Generator: Sketch 52.2 (67145) - http://www.bohemiancoding.com/sketch -->
    <title>Group 22</title>
    <desc>Created with Sketch.</desc>
    <defs>
        <linearGradient x1="37.8234276%" y1="84.0021423%" x2="92.4667483%" y2="4.827398%" id="linearGradient-1">
            <stop stop-color="#854DE1" offset="0%"></stop>
            <stop stop-color="#FF3EA6" offset="100%"></stop>
        </linearGradient>
    </defs>
    <g id="User-profile-" stroke="none" stroke-width="1" fill="none" fill-rule="evenodd">
        <g id="Group-22">
            <g id="Group-21">
                <path d="M47.1674525,27.1102431 C46.7808405,27.4971828 46.3196557,27.8556711 45.7838982,28.185708 C44.4023287,29.5513776 46.4149855,31.1901812 44.5728928,30.2512833 L38.8419378,27.3321644 L22.5871754,19.0527921 C22.5530626,19.0374283 22.5189498,19.0869338 22.5360062,19.1210756 L26.9536174,28.185708 C27.8576073,30.029362 27.6188175,32.3168587 26.1178531,33.7166701 C23.6787859,36.0212377 19.9946005,35.184765 18.6642002,32.4363548 L11.48345,17.738335 C9.82897789,14.4948696 10.7841371,10.4661441 13.95663,8.33228524 C16.2080767,6.83004861 19.1588362,6.83004861 21.5637906,8.05915131 L45.7838982,20.4013909 L48.5982065,21.835344 C50.5426377,22.8254545 51.753643,24.9934551 51.2419506,27.1102431 C51.0202173,28.0320701 47.7473706,26.5298335 47.1674525,27.1102431 Z" id="Fill-3" fill="#4317AF"></path>
                <path d="M100.217659,57.8562571 C99.9447568,59.3926355 99.2283874,60.7412343 98.1879462,61.7842645 C97.0963357,62.8597294 95.6806534,63.6091406 94.0773505,63.8498399 L66.7188627,67.8273528 L63.5293133,68.2865592 C60.5103281,68.7304018 57.7471891,66.1697712 58.2588815,62.8597294 C58.5658969,60.8265887 60.3227075,59.324352 62.3524208,59.0341472 L68.2027707,58.1806037 L86.3849078,55.5363258 C86.4190207,55.5363258 86.4360771,55.4680423 86.4019643,55.4509715 L79.221214,51.7107437 C76.5263007,50.2938614 75.7758185,46.5894824 78.1296036,44.2183385 C79.5623423,42.7485365 81.8649582,42.5607569 83.6899945,43.5184328 L96.4311356,50.1572944 C99.2283874,51.6424602 100.746408,54.7339949 100.217659,57.8562571" id="Fill-1" fill="#4317AF"></path>
                <path d="M69.9260569,0.613794095 C69.3052034,0.439671213 68.6741161,0.357731033 68.0481457,0.357731033 C65.9757914,0.357731033 63.9426669,1.26248718 62.4365856,2.77155216 L45.7383564,19.4856417 L38.8049242,26.4232436 L2.92164085,62.3369416 C0.966975826,64.2949705 0.018639218,67.1389775 0.746948088,69.8071547 C1.77203856,73.557625 5.28736545,75.8143941 8.94084928,75.3739656 L25.9819123,74.400926 C28.028682,74.2814299 29.9082988,72.9430736 30.3995235,70.950903 C31.1994693,67.6954879 28.6682975,64.8975722 25.622022,65.0734022 L12.7512521,65.8057425 C12.7103167,65.8108638 12.6864378,65.7596512 12.7154337,65.7306307 L49.9240004,28.4922332 L49.9461737,28.470041 L65.1946077,13.2086826 C65.2253092,13.1762479 65.2781841,13.2035613 65.2713615,13.2462385 L54.6264537,82.6990763 C54.6196311,82.7485818 54.5514055,82.751996 54.5377603,82.7059046 L46.8862531,57.1798315 C46.1528273,54.7352828 43.6660022,53.0777013 41.1962334,53.7042022 C38.6053642,54.3597237 37.1078111,57.0347291 37.8668215,59.5680464 L48.8340956,96.1492154 C48.8340956,96.1543366 48.8358012,96.1560437 48.8358012,96.1594579 L48.8852648,96.2533477 C50.063863,98.5801074 52.3425999,100.266709 54.9454086,100.379377 C57.0450532,100.466439 58.9400207,99.6675218 60.2874774,98.317216 C61.3057453,97.3014991 62.0101752,95.96485 62.2557876,94.4677346 L66.5215967,66.6405081 L67.9986821,56.992052 L75.356819,8.9887633 C75.9282089,5.28779852 73.6955243,1.67218808 69.9260569,0.613794095" id="Fill-7" fill="url(#linearGradient-1)"></path>
            </g>
            <path d="M219.498981,21 C221.431566,21 223,22.5876871 223,24.5468989 L223,27.2462573 C223,29.2025665 221.431566,30.7902536 219.498981,30.7902536 L208.838218,30.7902536 C206.905633,30.7902536 205.337199,32.3750382 205.337199,34.3342499 L205.337199,74.4531011 C205.337199,76.4094103 203.768765,78 201.836179,78 L199.163821,78 C197.231235,78 195.662801,76.4094103 195.662801,74.4531011 L195.662801,34.3342499 C195.662801,32.3750382 194.097235,30.7902536 192.161782,30.7902536 L181.501019,30.7902536 C179.568434,30.7902536 178,29.2025665 178,27.2462573 L178,24.5468989 C178,22.5876871 179.568434,21 181.501019,21 L219.498981,21 Z M138.09668,38.2573204 C138.808585,42.2984995 143.23663,44.1195066 148.843589,46.4270869 C157.355119,49.9292478 167,53.8946729 167,65.2257078 C167,65.3830428 165.766982,81 145.973191,81 C130.877969,81 127.056466,71.9415821 126.139533,66.3416209 C126.210724,66.4756471 126.276219,66.6096732 126.384428,66.723304 C126.552438,66.8922935 126.746076,67.0146652 126.951104,67.0991599 C126.757466,67.0146652 126.572371,66.8952071 126.412905,66.7320449 C126.301847,66.6213276 126.236352,66.4814743 126.162314,66.3474482 C126.142381,66.2192493 126.133838,66.1114456 126.116752,65.989074 C126.028476,65.7792939 126,65.5549459 126.028476,65.3305978 C126.019933,65.2577575 126.005695,65.1820036 126,65.1091633 C126.068343,64.8178022 126.187943,64.5322682 126.412905,64.3020929 C126.54959,64.159326 126.711904,64.069004 126.877066,63.9845093 L127.657314,63.8096926 C127.671552,63.8096926 127.68579,63.8184334 127.700028,63.8184334 L132.301778,62.7782742 C134.016044,62.3907639 135.616405,63.4367504 136.299833,65.0945953 C137.834699,68.8298451 141.40846,71.1694751 145.973191,71.1694751 C149.40457,71.1694751 152.616683,69.7971641 154.35373,67.5769922 C155.50132,66.1114456 155.937005,64.3924149 155.575358,62.7287428 C154.641339,58.4515612 149.965551,56.6276405 144.549382,54.5152722 C136.593138,51.412276 127.571885,47.895547 127.571885,36.6810567 C127.569037,36.6227844 127.500695,30.6527946 131.834769,26.0725975 C135.015558,22.7044627 139.771079,21 145.973191,21 C160.883317,21 164.741839,29.9098237 165.73281,34.7755548 C165.73281,36.5187984 165.73281,36.5187984 164.271982,37.2725198 L159.31428,38.388433 C157.682595,38.7526344 156.139186,37.8173651 155.390263,36.2906327 C153.732949,32.8962754 150.284484,30.8305249 145.973191,30.8305249 C143.239478,30.8305249 140.836088,31.8473753 139.378108,33.6188511 C138.273232,34.9620259 137.817614,36.6023892 138.09668,38.2573204 Z M488.266991,52.7948693 L488.266991,41.2391046 C488.266991,36.8184429 487.548485,32.104794 479.001443,32.104794 C471.308528,32.104794 469.733009,35.7527734 469.733009,41.2391046 L469.733009,52.7977417 C469.733009,54.6964144 470.916091,56.3049723 473.259169,56.3049723 L484.743716,56.3020998 C486.688587,56.3020998 488.266991,54.7308835 488.266991,52.7948693 Z M479.001443,21 C496.545675,21 498,30.5737916 498,41.2391046 L498,75.4870246 C498,77.4287837 496.421596,79 494.47384,79 L491.790265,79 C489.842509,79 488.266991,77.4287837 488.266991,75.4870246 L488.266991,69.498019 C488.266991,67.5620048 486.688587,65.9936609 484.743716,65.9936609 L473.259169,65.9936609 C470.685246,65.9936609 469.733009,67.2891244 469.733009,69.5008914 L469.733009,75.4841521 C469.733009,77.4259113 468.15172,78.9971276 466.203964,78.9942552 L463.520389,78.9913827 C461.575518,78.9913827 460,77.417294 460,75.4812797 L460,41.2391046 C460,30.5737916 461.454325,21 479.001443,21 Z M267.266991,52.7948693 L267.266991,41.2391046 C267.266991,36.8184429 266.551371,32.104794 258.001443,32.104794 C250.308528,32.104794 248.733009,35.7527734 248.733009,41.2391046 L248.733009,52.7977417 C248.733009,54.6964144 249.918976,56.3049723 252.259169,56.3049723 L263.743716,56.3020998 C265.691472,56.3020998 267.266991,54.7308835 267.266991,52.7948693 Z M258.001443,21 C275.545675,21 277,30.5737916 277,41.2391046 L277,75.4870246 C277,77.4287837 275.421596,79 273.47384,79 L270.790265,79 C268.845394,79 267.266991,77.4287837 267.266991,75.4870246 L267.266991,69.498019 C267.266991,67.5620048 265.688587,65.9936609 263.743716,65.9936609 L252.259169,65.9936609 C249.688131,65.9936609 248.733009,67.2891244 248.733009,69.5008914 L248.733009,75.4841521 C248.733009,77.4259113 247.154606,78.9971276 245.203964,78.9942552 L242.520389,78.9913827 C240.575518,78.9913827 239,77.417294 239,75.4812797 L239,41.2391046 C239,30.5737916 240.454325,21 258.001443,21 Z M314.538979,48.5350523 C318.878154,48.5350523 323.507735,47.8501585 323.507735,39.6575518 C323.507735,31.4736513 318.878154,30.7887575 314.538979,30.7887575 L308.231809,30.7887575 C306.28355,30.7887575 304.701824,32.4139292 304.701824,34.4250793 L304.701824,44.9016327 C304.701824,46.9040764 306.28355,48.5350523 308.231809,48.5350523 L314.538979,48.5350523 Z M334.720795,75.4316443 C334.469861,75.2081832 336.007503,78.0898783 333.742436,77.9854856 L327.6862,77.9854856 C326.397699,77.9854856 325.219157,77.2512562 324.627067,76.0701046 L316.68742,60.2798201 L316.619753,60.1463238 L316.540808,60.0215339 C315.855675,58.956466 314.75044,58.3238098 313.585996,58.3238098 L308.22899,58.3238098 C306.277912,58.3238098 304.693366,59.9547857 304.699004,61.9630337 L304.72156,74.447835 C304.72438,76.4038452 303.184945,77.9883877 301.284618,77.9912898 L298.46796,77.999996 C296.564814,78.0028981 295.01974,76.4154536 295.016921,74.4623454 L295.000004,24.5434548 C294.997184,22.5903466 296.542258,21 298.442585,21 L314.014556,21 C327.689019,21 333.017831,26.2295704 333.017831,39.6575518 C333.017831,47.3132714 331.278213,52.1626678 327.508573,54.9428722 C326.180599,55.9615067 325.715385,57.7433914 326.346948,59.3743673 L326.403338,59.5281782 L326.479464,59.6674786 L334.720795,75.4316443 Z M372.350529,70.8938684 C375.503867,70.8938684 381.376286,70.8938684 381.376286,63.4510084 C381.376286,55.8281727 375.617399,55.8281727 372.526503,55.8281727 L364.953949,55.8281727 C363.038104,55.8281727 361.48556,57.4131188 361.48556,59.3696272 L361.48556,67.3466083 C361.48556,69.3060196 363.038104,70.8938684 364.953949,70.8938684 L372.350529,70.8938684 Z M361.48556,35.2732227 L361.48556,43.2502037 C361.48556,45.2038093 363.038104,46.7916582 364.953949,46.7916582 L371.998581,46.7916582 C375.154758,46.7916582 381.024338,46.7916582 381.024338,39.351701 C381.024338,31.7288653 375.268289,31.7288653 372.174555,31.7288653 L364.953949,31.7288653 C363.038104,31.7288653 361.48556,33.3167142 361.48556,35.2732227 Z M387.37359,55.1663272 C390.140921,56.478407 392,60.1650031 392,64.3450805 C392,73.2016195 389.051018,78 373.485844,78 L355.46555,78 C353.549706,78 352,76.4121512 352,74.4585455 L352,24.5443573 C352,22.584946 353.549706,21 355.46555,21 L370.253033,21 C384.830483,21 390.251614,26.0596354 390.251614,39.6652068 C390.251614,42.8350988 389.269566,47.6421878 386.502235,50.7482176 L383.993188,53.5610613 L387.37359,55.1663272 Z M441.487014,21 C443.426205,21 445,22.5876871 445,24.5468989 L445,27.2462573 C445,29.2025665 443.426205,30.7902536 441.487014,30.7902536 L421.755599,30.7902536 L421.749844,30.7902536 C419.810653,30.7902536 418.236858,32.3750382 418.236858,34.3342499 L418.236858,34.3371525 L418.236858,41.0594256 C418.236858,43.0157348 419.810653,44.6005194 421.749844,44.6005194 L433.776283,44.6005194 C435.718351,44.6005194 437.292146,46.1882065 437.292146,48.1503208 L437.292146,50.8496792 C437.292146,52.8088909 435.718351,54.3936755 433.776283,54.3936755 L421.749844,54.3936755 C419.810653,54.3936755 418.236858,55.9813627 418.236858,57.9434769 L418.236858,64.659945 L418.236858,64.6628475 C418.236858,66.6220593 419.810653,68.2097464 421.749844,68.2097464 L421.755599,68.2097464 L441.487014,68.2097464 C443.426205,68.2097464 445,69.7974335 445,71.7537427 L445,74.4531011 C445,76.4094103 443.426205,78 441.487014,78 L411.512986,78 C409.573795,78 408,76.4094103 408,74.4531011 L408,24.5468989 C408,22.5876871 409.573795,21 411.512986,21 L441.487014,21 Z M548.498981,21 C550.431566,21 552,22.5876871 552,24.5468989 L552,27.2462573 C552,29.2025665 550.431566,30.7902536 548.498981,30.7902536 L537.838218,30.7902536 C535.905633,30.7902536 534.337199,32.3750382 534.337199,34.3342499 L534.337199,74.4531011 C534.337199,76.4094103 532.768765,78 530.836179,78 L528.163821,78 C526.231235,78 524.662801,76.4094103 524.662801,74.4531011 L524.662801,34.3342499 C524.662801,32.3750382 523.097235,30.7902536 521.161782,30.7902536 L510.501019,30.7902536 C508.568434,30.7902536 507,29.2025665 507,27.2462573 L507,24.5468989 C507,22.5876871 508.568434,21 510.501019,21 L548.498981,21 Z" id="Combined-Shape" fill="#4317AF"></path>
        </g>
    </g>
</svg>